# xmcd CD database file
# Copyright (C) 1996 Ti Kan
#
# Track frame offsets:
#  183
#  21783
#  43025
#  60383
#  78783
#  101320
#  125820
#  152308
#  168570
#  182183
#
# Disc length: 2707 seconds
#
# Revision: 2
# Processed by: cddbd v1.4b41PL1 Copyright (c) Steve Scherf et al.
# Submitted via: CDWizzard Release:4.12
#
DISCID=720a910a
DTITLE=J. D. Short - Legacy Of The Blues (Vol. 8)
DYEAR=1900
DGENRE=
TTITLE0=Starry Crown Blues
TTITLE1=My Rare Dog
TTITLE2=By The Spoonful
TTITLE3=You're Tempting Me
TTITLE4=Slidin' Delta
TTITLE5=I'm Just Wastin' My Time
TTITLE6=The Red River Run
TTITLE7=Help Me Some
TTITLE8=East St. Louis
TTITLE9=Make Me Down A Pallet
EXTD=
EXTT0=
EXTT1=
EXTT2=
EXTT3=
EXTT4=
EXTT5=
EXTT6=
EXTT7=
EXTT8=
EXTT9=
PLAYORDER=
